{
	"asset":{
		"generator":"Khronos glTF Blender I/O v3.5.30",
		"version":"2.0"
	},
	"extensionsUsed":[
		"KHR_materials_specular",
		"KHR_materials_ior"
	],
	"scene":0,
	"scenes":[
		{
			"name":"Scene",
			"nodes":[
				0
			]
		}
	],
	"nodes":[
		{
			"mesh":0,
			"name":"Cube",
			"scale":[
				0.037203483283519745,
				0.10000002384185791,
				0.050000011920928955
			]
		}
	],
	"materials":[
		{
			"doubleSided":true,
			"extensions":{
				"KHR_materials_specular":{
					"specularColorFactor":[
						0.2159786814105143,
						0.2159786814105143,
						0.2159786814105143
					]
				},
				"KHR_materials_ior":{
					"ior":1.4500000476837158
				}
			},
			"name":"PistolBlack",
			"pbrMetallicRoughness":{
				"baseColorFactor":[
					0.024513855576515198,
					0.024513855576515198,
					0.024513855576515198,
					1
				],
				"metallicFactor":0,
				"roughnessFactor":0.5
			}
		},
		{
			"doubleSided":true,
			"name":"PistolGray",
			"pbrMetallicRoughness":{
				"baseColorFactor":[
					0.10860184580087662,
					0.10860184580087662,
					0.10860184580087662,
					1
				],
				"metallicFactor":0,
				"roughnessFactor":0.5
			}
		}
	],
	"meshes":[
		{
			"name":"Cube",
			"primitives":[
				{
					"attributes":{
						"POSITION":0,
						"TEXCOORD_0":1,
						"NORMAL":2
					},
					"indices":3,
					"material":0
				},
				{
					"attributes":{
						"POSITION":4,
						"TEXCOORD_0":5,
						"NORMAL":6
					},
					"indices":7,
					"material":1
				}
			]
		}
	],
	"accessors":[
		{
			"bufferView":0,
			"componentType":5126,
			"count":164,
			"max":[
				1,
				1,
				1.4652358293533325
			],
			"min":[
				-1.0478417873382568,
				-1,
				-5.036090850830078
			],
			"type":"VEC3"
		},
		{
			"bufferView":1,
			"componentType":5126,
			"count":164,
			"type":"VEC2"
		},
		{
			"bufferView":2,
			"componentType":5126,
			"count":164,
			"type":"VEC3"
		},
		{
			"bufferView":3,
			"componentType":5123,
			"count":246,
			"type":"SCALAR"
		},
		{
			"bufferView":4,
			"componentType":5126,
			"count":246,
			"max":[
				0.6848171949386597,
				0.8615924715995789,
				1.6210017204284668
			],
			"min":[
				-0.6848171949386597,
				0.27865833044052124,
				-5.089443206787109
			],
			"type":"VEC3"
		},
		{
			"bufferView":5,
			"componentType":5126,
			"count":246,
			"type":"VEC2"
		},
		{
			"bufferView":6,
			"componentType":5126,
			"count":246,
			"type":"VEC3"
		},
		{
			"bufferView":7,
			"componentType":5123,
			"count":504,
			"type":"SCALAR"
		}
	],
	"bufferViews":[
		{
			"buffer":0,
			"byteLength":1968,
			"byteOffset":0,
			"target":34962
		},
		{
			"buffer":0,
			"byteLength":1312,
			"byteOffset":1968,
			"target":34962
		},
		{
			"buffer":0,
			"byteLength":1968,
			"byteOffset":3280,
			"target":34962
		},
		{
			"buffer":0,
			"byteLength":492,
			"byteOffset":5248,
			"target":34963
		},
		{
			"buffer":0,
			"byteLength":2952,
			"byteOffset":5740,
			"target":34962
		},
		{
			"buffer":0,
			"byteLength":1968,
			"byteOffset":8692,
			"target":34962
		},
		{
			"buffer":0,
			"byteLength":2952,
			"byteOffset":10660,
			"target":34962
		},
		{
			"buffer":0,
			"byteLength":1008,
			"byteOffset":13612,
			"target":34963
		}
	],
	"buffers":[
		{
			"byteLength":14620,
			"uri":"pistol-47021a6cc800c49f47a55e939586bcc9.bin"
		}
	]
}
