{
	"asset":{
		"generator":"Khronos glTF Blender I/O v3.5.30",
		"version":"2.0"
	},
	"scene":0,
	"scenes":[
		{
			"name":"Scene",
			"nodes":[
				0
			]
		}
	],
	"nodes":[
		{
			"mesh":0,
			"name":"Plane-col"
		}
	],
	"materials":[
		{
			"doubleSided":true,
			"name":"Material.001",
			"pbrMetallicRoughness":{
				"baseColorFactor":[
					0.800000011920929,
					0.800000011920929,
					0.800000011920929,
					1
				],
				"metallicFactor":0,
				"roughnessFactor":0.5
			}
		},
		{
			"doubleSided":true,
			"name":"Material.004",
			"pbrMetallicRoughness":{
				"baseColorFactor":[
					0.800000011920929,
					0.800000011920929,
					0.800000011920929,
					1
				],
				"metallicFactor":0,
				"roughnessFactor":0.5
			}
		}
	],
	"meshes":[
		{
			"name":"Plane",
			"primitives":[
				{
					"attributes":{
						"POSITION":0,
						"TEXCOORD_0":1,
						"NORMAL":2
					},
					"indices":3,
					"material":0
				},
				{
					"attributes":{
						"POSITION":4,
						"TEXCOORD_0":5,
						"NORMAL":6
					},
					"indices":7,
					"material":1
				}
			]
		}
	],
	"accessors":[
		{
			"bufferView":0,
			"componentType":5126,
			"count":44,
			"max":[
				30,
				6,
				30
			],
			"min":[
				-30,
				0,
				-30
			],
			"type":"VEC3"
		},
		{
			"bufferView":1,
			"componentType":5126,
			"count":44,
			"type":"VEC2"
		},
		{
			"bufferView":2,
			"componentType":5126,
			"count":44,
			"type":"VEC3"
		},
		{
			"bufferView":3,
			"componentType":5123,
			"count":78,
			"type":"SCALAR"
		},
		{
			"bufferView":4,
			"componentType":5126,
			"count":1080,
			"max":[
				21.019886016845703,
				6.947459697723389,
				21.07018280029297
			],
			"min":[
				-20.966121673583984,
				-4.658987522125244,
				-21.03773307800293
			],
			"type":"VEC3"
		},
		{
			"bufferView":5,
			"componentType":5126,
			"count":1080,
			"type":"VEC2"
		},
		{
			"bufferView":6,
			"componentType":5126,
			"count":1080,
			"type":"VEC3"
		},
		{
			"bufferView":7,
			"componentType":5123,
			"count":2040,
			"type":"SCALAR"
		}
	],
	"bufferViews":[
		{
			"buffer":0,
			"byteLength":528,
			"byteOffset":0,
			"target":34962
		},
		{
			"buffer":0,
			"byteLength":352,
			"byteOffset":528,
			"target":34962
		},
		{
			"buffer":0,
			"byteLength":528,
			"byteOffset":880,
			"target":34962
		},
		{
			"buffer":0,
			"byteLength":156,
			"byteOffset":1408,
			"target":34963
		},
		{
			"buffer":0,
			"byteLength":12960,
			"byteOffset":1564,
			"target":34962
		},
		{
			"buffer":0,
			"byteLength":8640,
			"byteOffset":14524,
			"target":34962
		},
		{
			"buffer":0,
			"byteLength":12960,
			"byteOffset":23164,
			"target":34962
		},
		{
			"buffer":0,
			"byteLength":4080,
			"byteOffset":36124,
			"target":34963
		}
	],
	"buffers":[
		{
			"byteLength":40204,
			"uri":"untitled-76eaa641f551b64bc63bec9bfc681438.bin"
		}
	]
}
